<svg id="Layer_1" version="1.1" viewBox="0 0 128 128" xml:space="preserve" xmlns="http://www.w3.org/2000/svg"><circle cx="64" cy="64" fill="#4B5F83" id="circle" r="64"/><g id="icon"><g id="bottom"><path fill="#22A7F0" id="base" d="M79.2 62H49l-6 14.5V87h41V76.5z"/><circle cx="64" cy="74" fill="#FFF" id="circle_5_" r="9"/><circle cx="63.8" cy="70.1" fill="#22313F" id="circle_4_" r="2"/><circle cx="63.8" cy="78.1" fill="#22313F" id="circle_2_" r="2"/><circle cx="59.8" cy="74.1" fill="#22313F" id="circle_1_" r="2"/><path fill="#22313F" id="square_1_" d="M71 58h4v4h-4z"/><path fill="#22313F" id="square" d="M52.8 58h4v4h-4z"/></g><path d="M95 46.5l-6.4-1.7c-14.6-4.5-30.1-4.9-44.9-1.1l-.8.2c-.3.1-.6.2-.9.2l-9 2.4c-6.4 1.7-10.2 8.3-8.5 14.7 1.2 4.3 5.5 6.8 9.8 5.6l6.8-1.8c4.3-1.2 6.8-5.5 5.6-9.8l-.5-1.9c11.6-2.9 23.8-2.9 35.5 0l-.5 2c-1.2 4.3 1.4 8.7 5.6 9.8l6.8 1.8c4.3 1.2 8.7-1.4 9.8-5.6 1.7-6.5-2-13.1-8.4-14.8z" fill="#22313F" id="top"/></g></svg>