<svg height="500" id="svg2" version="1.1" width="500" xmlns="http://www.w3.org/2000/svg"><g id="layer1" transform="translate(0 -552.362)" fill-opacity="1" stroke="none"><rect height="500" id="rect2990-1" rx="250" ry="250" width="500" x="0" y="552.362" fill="#01aef2"/><path d="M178.526 642.362C129.677 642.362 90 681.432 90 729.6c0 16.167 4.405 31.241 12.158 44.158-2 9.75-3.105 19.93-3.105 30.263 0 83.167 68.38 150.5 152.658 150.5 9.586 0 18.918-.833 27.92-2.5a89.615 89.615 0 0041.843 10.342c48.932 0 88.526-39.07 88.526-87.237.083-13.916-3.266-27.096-9.184-38.763 2.334-10.416 3.526-21.18 3.526-32.263 0-83.083-68.376-150.474-152.737-150.474-8.92 0-17.576.742-26.079 2.158-13.587-8.5-29.66-13.42-47-13.42zm71.842 55.763c13.671 0 25.602 1.58 35.606 4.58 10.086 3.083 18.484 7.254 25.237 12.42 6.668 5.167 11.674 10.645 14.842 16.395 3.167 5.833 4.763 11.575 4.763 17.158 0 5.333-2.095 10.276-6.263 14.526-4.168 4.25-9.406 6.5-15.658 6.5-5.669 0-10.1-1.333-13.184-4-2.835-2.5-5.828-6.364-9.08-11.947-3.834-7.083-8.406-12.737-13.657-16.737-5.169-3.833-13.69-5.842-25.527-5.842-10.92 0-19.835 2.197-26.42 6.447-6.336 4.084-9.422 8.812-9.422 14.395 0 3.417 1.022 6.263 3.106 8.763 2.167 2.584 5.16 4.926 9.078 6.842 4.002 2 8.153 3.575 12.237 4.658 4.252 1.167 11.352 2.913 21.106 5.08a372.25 372.25 0 0133.763 8.683c10.17 3.25 18.91 7.154 26.079 11.737 7.335 4.667 13.095 10.755 17.263 17.921 4.084 7.167 6.158 16.167 6.158 26.5.333 12.584-3.252 23.93-10.421 33.763-7.086 9.834-17.496 17.632-31 23.132-13.421 5.5-29.424 8.263-47.763 8.263-21.924 0-40.263-3.816-54.685-11.316-10.253-5.5-18.682-12.86-25.184-22.026-6.502-9.167-9.763-18.324-9.763-27.158 0-5.5 2.2-10.237 6.368-14.237 4.168-3.833 9.586-5.842 15.921-5.842 5.252 0 9.727 1.496 13.395 4.58 3.501 2.916 6.504 7.254 8.921 12.92 2.751 6.084 5.701 11.233 8.869 15.316 3 3.917 7.235 7.18 12.736 9.763 5.586 2.584 12.989 3.921 22.158 3.921 12.588 0 22.932-2.67 30.685-7.92 7.669-5.084 11.342-11.264 11.342-18.764 0-5.917-1.92-10.57-5.921-14.237-4.168-3.833-9.59-6.816-16.342-8.816-6.92-2.166-16.33-4.451-28-6.868-15.839-3.333-29.247-7.316-40-11.816-10.92-4.583-19.762-10.978-26.264-18.895-6.585-8.083-9.842-18.267-9.842-30.184 0-11.416 3.507-21.587 10.342-30.42 6.836-8.75 16.737-15.571 29.658-20.238 12.671-4.666 27.758-7 44.763-7z" id="rect2989-7" fill="#fff"/></g></svg>